<svg width="70" height="71" viewBox="0 0 70 71" fill="none" xmlns="http://www.w3.org/2000/svg">
<g filter="url(#filter0_dd_14_27)">
<g clip-path="url(#clip0_14_27)">
<rect x="5" y="2" width="60" height="60" rx="30" fill="white"/>
<path fill-rule="evenodd" clip-rule="evenodd" d="M35.0002 42C40.5202 42 45.0002 37.52 45.0002 32C45.0002 26.48 40.5202 22 35.0002 22C29.4802 22 25.0002 26.48 25.0002 32C25.0002 37.52 29.4802 42 35.0002 42ZM35.0002 38C38.3122 38 41.0002 35.312 41.0002 32C41.0002 28.688 38.3122 26 35.0002 26C31.6882 26 29.0002 28.688 29.0002 32C29.0002 35.312 31.6882 38 35.0002 38Z" fill="#1A47B8"/>
<path d="M35.0003 34C36.1049 34 37.0003 33.1046 37.0003 32C37.0003 30.8955 36.1049 30 35.0003 30C33.8957 30 33.0003 30.8955 33.0003 32C33.0003 33.1046 33.8957 34 35.0003 34Z" fill="#1A47B8"/>
<path fill-rule="evenodd" clip-rule="evenodd" d="M-6.99951 42H77.0005V62H-6.99951V42Z" fill="#249F58"/>
<path fill-rule="evenodd" clip-rule="evenodd" d="M-6.99951 2H77.0005V22H-6.99951V2Z" fill="#FF6C2D"/>
</g>
</g>
<defs>
<filter id="filter0_dd_14_27" x="0.102041" y="0.367347" width="69.7959" height="69.7959" filterUnits="userSpaceOnUse" color-interpolation-filters="sRGB">
<feFlood flood-opacity="0" result="BackgroundImageFix"/>
<feColorMatrix in="SourceAlpha" type="matrix" values="0 0 0 0 0 0 0 0 0 0 0 0 0 0 0 0 0 0 127 0" result="hardAlpha"/>
<feOffset dy="3.26531"/>
<feGaussianBlur stdDeviation="2.44898"/>
<feComposite in2="hardAlpha" operator="out"/>
<feColorMatrix type="matrix" values="0 0 0 0 0.258824 0 0 0 0 0.278431 0 0 0 0 0.298039 0 0 0 0.08 0"/>
<feBlend mode="normal" in2="BackgroundImageFix" result="effect1_dropShadow_14_27"/>
<feColorMatrix in="SourceAlpha" type="matrix" values="0 0 0 0 0 0 0 0 0 0 0 0 0 0 0 0 0 0 127 0" result="hardAlpha"/>
<feOffset/>
<feGaussianBlur stdDeviation="0.204082"/>
<feComposite in2="hardAlpha" operator="out"/>
<feColorMatrix type="matrix" values="0 0 0 0 0.258824 0 0 0 0 0.278431 0 0 0 0 0.298039 0 0 0 0.32 0"/>
<feBlend mode="normal" in2="effect1_dropShadow_14_27" result="effect2_dropShadow_14_27"/>
<feBlend mode="normal" in="SourceGraphic" in2="effect2_dropShadow_14_27" result="shape"/>
</filter>
<clipPath id="clip0_14_27">
<rect x="5" y="2" width="60" height="60" rx="30" fill="white"/>
</clipPath>
</defs>
</svg>
