<svg width="42" height="42" viewBox="0 0 42 42" fill="none" xmlns="http://www.w3.org/2000/svg">
<circle cx="21" cy="21" r="21" fill="white"/>
<path d="M20.7736 8.52733C16.3332 8.72531 12.5716 12.1192 11.9493 16.5031C11.7231 18.0869 11.9211 19.5859 12.4019 20.9435C13.1372 23.0364 14.6079 24.7617 16.4746 25.8647L20.8867 33.3031C20.9998 33.5011 21.311 33.5011 21.4241 33.3031L25.7231 25.9213C28.5514 24.3374 30.4463 21.3112 30.4463 17.8324C30.4746 12.5435 26.0908 8.32935 20.7736 8.52733ZM21.7635 25.1859C17.1534 25.5536 13.3635 21.7354 13.7029 17.1253C13.9857 13.5051 16.9271 10.5637 20.5473 10.2809C25.1574 9.91319 28.9473 13.7314 28.6079 18.3415C28.3251 21.9617 25.3837 24.9031 21.7635 25.1859Z" fill="#8DA6BC"/>
<path d="M21.1413 11.6383C17.7757 11.6383 15.0322 14.3817 15.0322 17.7474C15.0322 21.1131 17.7757 23.8565 21.1413 23.8565C24.507 23.8565 27.2504 21.1131 27.2504 17.7474C27.2504 14.3817 24.5353 11.6383 21.1413 11.6383ZM21.1413 22.9232C20.7736 22.9232 20.4342 22.8949 20.1231 22.81L19.6989 21.7918L19.2464 20.3777L17.9171 20.2363L17.3231 19.6423L16.4747 19.8686C16.1635 19.1898 15.9938 18.4545 15.9938 17.6908C15.9938 17.3232 16.0504 16.9555 16.1353 16.5878L17.0686 16.3898L17.3797 15.5696L18.1999 15.9939L19.0484 14.7494L18.3696 13.307C19.1615 12.7979 20.1231 12.5151 21.1413 12.5151C21.3676 12.5151 21.6221 12.5434 21.8484 12.5716L22.414 13.6747L21.3676 14.7777L20.0666 15.8807L19.9252 17.9171L21.6504 19.303L21.9898 21.0565L23.6019 21.1979L23.913 18.907L25.61 17.408L25.3837 16.107L26.0342 15.8524C26.2605 16.4464 26.4019 17.0969 26.4019 17.7474C26.3454 20.5757 23.9979 22.9232 21.1413 22.9232Z" fill="#8DA6BC"/>
</svg>
